<?xml version="1.0" encoding="UTF-8" standalone="no"?>
<!-- Created with Inkscape (http://www.inkscape.org/) -->
<svg id="svg2" xmlns:rdf="http://www.w3.org/1999/02/22-rdf-syntax-ns#" style="shape-rendering:crispEdges" xmlns="http://www.w3.org/2000/svg" height="74" width="274" version="1.1" xmlns:cc="http://creativecommons.org/ns#" xmlns:dc="http://purl.org/dc/elements/1.1/" viewBox="0 0 274 74">
 <title id="title3336">UME.INK Logo</title>
 <metadata id="metadata7">
  <rdf:RDF>
   <cc:Work rdf:about="">
    <dc:format>image/svg+xml</dc:format>
    <dc:type rdf:resource="http://purl.org/dc/dcmitype/StillImage"/>
    <dc:title>UME.INK Logo</dc:title>
    <dc:language>EN</dc:language>
    <dc:creator>
     <cc:Agent>
      <dc:title>Bekcpear</dc:title>
     </cc:Agent>
    </dc:creator>
   </cc:Work>
  </rdf:RDF>
 </metadata>
 <g id="layer1" fill="#808080" transform="translate(-13 -965.36)">
  <rect id="rect3362" height="14" width="14" y="965.36" x="13"/>
  <rect id="rect3364" height="14" width="14" y="965.36" x="13"/>
  <rect id="rect3366" rx="0" ry="0" height="14" width="14" y="965.36" x="13"/>
  <rect id="rect3387" height="54" width="14" y="965.36" x="13"/>
  <rect id="rect3391" height="14" width="74" y="1025.4" x="13"/>
  <rect id="rect3401" height="54" width="14" y="965.36" x="73"/>
  <g>
   <rect id="rect5711" height="74" width="14" y="965.36" x="113"/>
   <rect id="rect5719" height="74" width="14" y="965.36" x="173"/>
   <rect id="rect5721" height="14" width="34" y="985.36" x="133"/>
   <rect id="rect5725" height="14" width="14" y="1005.4" x="143"/>
   <rect id="rect5733" height="14" width="74" y="965.36" x="213"/>
   <rect id="rect5739" height="74" width="14" y="965.36" x="213"/>
   <rect id="rect5745" height="14" width="74" y="1025.4" x="213"/>
   <rect id="rect5749" height="14" width="34" y="995.36" x="243"/>
  </g>
  <rect id="rect3391-3" style="shape-rendering:crispEdges" height="14" width="74" y="1005.4" x="13"/>
 </g>
</svg>
