<?xml version="1.0" encoding="UTF-8" standalone="no"?>
<svg
   xmlns:dc="http://purl.org/dc/elements/1.1/"
   xmlns:cc="http://creativecommons.org/ns#"
   xmlns:rdf="http://www.w3.org/1999/02/22-rdf-syntax-ns#"
   xmlns:svg="http://www.w3.org/2000/svg"
   xmlns="http://www.w3.org/2000/svg"
   xmlns:sodipodi="http://sodipodi.sourceforge.net/DTD/sodipodi-0.dtd"
   xmlns:inkscape="http://www.inkscape.org/namespaces/inkscape"
   version="1.1"
   viewbox="0 0 16 16"
   width="16"
   height="16"
   id="svg865"
   sodipodi:docname="toggle-hide.svg"
   inkscape:version="0.92.4 5da689c313, 2019-01-14">
  <metadata
     id="metadata871">
    <rdf:RDF>
      <cc:Work
         rdf:about="">
        <dc:format>image/svg+xml</dc:format>
        <dc:type
           rdf:resource="http://purl.org/dc/dcmitype/StillImage" />
        <dc:title></dc:title>
      </cc:Work>
    </rdf:RDF>
  </metadata>
  <defs
     id="defs869" />
  <sodipodi:namedview
     pagecolor="#ffffff"
     bordercolor="#666666"
     borderopacity="1"
     objecttolerance="10"
     gridtolerance="10"
     guidetolerance="10"
     inkscape:pageopacity="0"
     inkscape:pageshadow="2"
     inkscape:window-width="1920"
     inkscape:window-height="1160"
     id="namedview867"
     showgrid="false"
     inkscape:zoom="58.375"
     inkscape:cx="8"
     inkscape:cy="8"
     inkscape:window-x="0"
     inkscape:window-y="20"
     inkscape:window-maximized="1"
     inkscape:current-layer="svg865" />
  <path
     d="M 4.1757812 1.5527344 L 2.6640625 2.859375 L 3.7636719 4.1308594 C 2.352034 4.9103375 1.0746064 6.0588973 0 7.5 C 2.073 10.28 4.89 12 8 12 C 8.7858897 12 9.5537292 11.888703 10.294922 11.679688 L 11.824219 13.447266 L 13.328125 12.146484 L 4.1757812 1.5527344 z M 8 3 C 7.5242183 3 7.0582991 3.0542413 6.5976562 3.1328125 L 7.7851562 4.5078125 A 3 3 0 0 1 8 4.5 A 3 3 0 0 1 10.927734 8.1445312 L 12.912109 10.443359 C 14.05483 9.6920559 15.101004 8.7055999 16 7.5 C 13.927 4.72 11.11 3 8 3 z M 5.3945312 6.015625 L 6.5136719 7.3085938 A 1.5 1.5 0 0 0 7.9765625 9 L 9.09375 10.291016 A 3 3 0 0 1 8 10.5 A 3 3 0 0 1 5.3945312 6.015625 z "
     id="path863"
     style="fill:#808080" />
</svg>
